<?xml version="1.0" encoding="UTF-8"?>
<svg xmlns="http://www.w3.org/2000/svg" xmlns:xlink="http://www.w3.org/1999/xlink" width="800px" height="861px" viewBox="0 0 800 860" version="1.1">
<g id="surface1">
<path style=" stroke:none;fill-rule:nonzero;fill:rgb(0%,0%,0%);fill-opacity:1;" d="M 398.472656 119.292969 C 403.859375 119.289062 409.242188 119.253906 414.628906 119.214844 C 494.011719 118.949219 568.90625 134.734375 628.734375 189.957031 C 642.238281 203.441406 652.761719 218.613281 661.929688 235.28125 C 663.464844 238.027344 663.464844 238.027344 665.03125 240.828125 C 673.789062 257.300781 679.359375 274.160156 684.265625 292.074219 C 684.769531 293.875 685.273438 295.679688 685.792969 297.535156 C 696.757812 345.25 684.734375 396.054688 660.40625 437.605469 C 645.933594 459.976562 628.691406 477.082031 605.378906 490 C 603.519531 491.035156 601.660156 492.066406 599.746094 493.132812 C 598.042969 494.015625 596.34375 494.898438 594.589844 495.808594 C 590.398438 498.707031 590.398438 498.707031 589.792969 503.867188 C 591.203125 510.765625 593.808594 513.027344 599.113281 517.597656 C 600.644531 518.964844 602.175781 520.332031 603.75 521.742188 C 618.003906 531.238281 633.445312 529.925781 650 530.148438 C 677.949219 530.886719 700.445312 533.59375 722.84375 551.699219 C 724.089844 552.667969 725.335938 553.636719 726.617188 554.636719 C 744.339844 570.1875 753.777344 595.183594 755.828125 618.140625 C 757.089844 647.402344 745.125 674.589844 726.015625 696.339844 C 722.960938 699.542969 719.875 702.714844 716.75 705.847656 C 715.628906 707.019531 714.503906 708.1875 713.347656 709.390625 C 687.558594 734 650.664062 737.273438 616.902344 736.976562 C 575.902344 736.003906 542.929688 722.355469 514.535156 692.683594 C 496.257812 673.140625 483.203125 651.746094 471.796875 627.734375 C 463.546875 610.5 454.90625 595.175781 436.800781 587.195312 C 416.527344 580.472656 400.148438 581.058594 380.949219 590.617188 C 360.847656 602.59375 351.519531 623.234375 342.257812 643.859375 C 334.46875 660.632812 326.753906 675.46875 314.722656 689.621094 C 313.53125 691.179688 312.339844 692.738281 311.113281 694.34375 C 292.789062 717.097656 264.4375 732.535156 235.53125 736.273438 C 203.828125 738.191406 177.65625 735.164062 150.253906 718.019531 C 148.128906 716.75 148.128906 716.75 145.960938 715.453125 C 120.367188 698.441406 104.542969 667.574219 97.714844 638.535156 C 92.714844 611.84375 94.988281 587.226562 109.644531 563.867188 C 122.449219 546.234375 137.597656 535.847656 158.375 529.511719 C 180.429688 522.585938 193.136719 510.183594 205.074219 490.847656 C 208.976562 483.332031 212.421875 475.640625 215.863281 467.902344 C 224.582031 449.085938 233.617188 433.128906 247.714844 417.832031 C 249.246094 416.160156 250.777344 414.488281 252.355469 412.765625 C 279.136719 386.285156 318.96875 373.570312 355.964844 372.574219 C 376.09375 372.980469 394.878906 377.320312 413.71875 384.078125 C 433.039062 391.007812 452.140625 396.957031 472.082031 388.417969 C 484.753906 375.761719 493.25 364.289062 493.457031 345.9375 C 492.570312 331.085938 488.105469 320.15625 478.554688 308.808594 C 451.367188 286.074219 418.261719 286.6875 384.6875 289.46875 C 369.234375 291.265625 355.382812 296.667969 343.148438 306.273438 C 341.179688 307.78125 339.210938 309.285156 337.183594 310.835938 C 330.902344 316.164062 325.707031 322.273438 320.34375 328.496094 C 300.5625 351.3125 277.261719 366.652344 246.597656 369.917969 C 222.433594 370.738281 205.214844 364.050781 186.800781 348.867188 C 184.792969 347.527344 182.78125 346.191406 180.710938 344.8125 C 180.710938 343.472656 180.710938 342.132812 180.710938 340.753906 C 179.371094 340.753906 178.03125 340.753906 176.648438 340.753906 C 159.050781 319.144531 149.816406 289.464844 152.285156 261.652344 C 156.554688 233.53125 166.113281 213.964844 184.773438 192.6875 C 185.828125 191.460938 186.886719 190.234375 187.976562 188.972656 C 240.535156 132.359375 325.25 119.289062 398.472656 119.292969 Z M 398.472656 119.292969 "/>
</g>
</svg>
